<?xml version="1.0" encoding="UTF-8"?>
<svg id="Layer_1" xmlns="http://www.w3.org/2000/svg" version="1.1" viewBox="0 0 84.65 84.65">
  <!-- Generator: Adobe Illustrator 30.0.0, SVG Export Plug-In . SVG Version: 2.1.1 Build 123)  -->
  <defs>
    <style>
      .st0 {
        fill: #45b29d;
      }

      .st1 {
        fill: #334d5c;
      }
    </style>
  </defs>
  <path class="st0" d="M78.43,6.21v58.08l-13.44,13.44V19.65l13.44-13.44ZM49.88,80.11h13.43v-13.41l-13.43,13.41ZM4.57,22.07v5.76l.08,49.8,13.34-13.34v-28.82l-13.42-13.4ZM32.3,65.02h-12.63l-15.14,15.14h12.69l14.67-14.67.41-.47ZM34.77,49.88l13.93-13.93L18.46,5.72l-13.93,13.93,30.23,30.23Z"/>
  <path class="st1" d="M80.95,4.53c0-.11-.02-.22-.06-.32-.09-.21-.25-.37-.45-.45-.21-.08-.44-.08-.64,0-.1.04-.2.1-.27.18l-15.11,15.11-14.52,14.52L20.24,3.94c-.33-.33-.86-.33-1.19,0L3.94,19.05c-.08.08-.14.17-.18.27-.04.1-.06.21-.06.32v60.46c0,.11.02.22.06.31h0s0,0,0,0c.06.14.16.25.27.33.03.02.05.04.08.06.12.07.26.13.42.13h15.12c.22,0,.44-.09.59-.25l15.12-15.12c.24-.24.31-.6.18-.92-.13-.31-.44-.52-.78-.52h-14.28v-27.36l13.68,13.68c.16.16.38.25.59.25s.43-.08.59-.25l15.12-15.12,13.68-13.68v42.97l-14.87,14.87c-.24.24-.31.6-.18.92.13.31.44.52.78.52h15.12s.06,0,.09,0h0s.09-.01.13-.03h0c.12-.04.24-.1.34-.19.07-.06.07-.06,0,0-.1.09,0,0,0,0h0s0,0,0,0,0,0,0,0c0,0,0,0,0,0,0,0,0,0,0,0l15.11-15.11c.08-.08.14-.17.18-.27.04-.1.06-.21.06-.32V4.53h0ZM32.74,65.84l-13.44,13.44H6.56l13.44-13.44h12.74ZM18.81,64.65l-13.44,13.44V21.68l13.44,13.44v29.54h0ZM34.77,48.69l-14.52-14.52h0s-14.52-14.52-14.52-14.52l13.93-13.93,29.04,29.04-13.93,13.93h0ZM64.16,79.27h-12.25l12.25-12.25v12.25ZM65.84,65V20l13.44-13.44v58.09l-13.44,13.44v-13.09h0Z"/>
</svg>