<?xml version="1.0" encoding="UTF-8"?>
<svg id="Layer_1" xmlns="http://www.w3.org/2000/svg" version="1.1" viewBox="0 0 84.65 117.8">
  <!-- Generator: Adobe Illustrator 30.0.0, SVG Export Plug-In . SVG Version: 2.1.1 Build 123)  -->
  <defs>
    <style>
      .st0 {
        fill: #45b29d;
      }

      .st1 {
        fill: #334d5c;
      }
    </style>
  </defs>
  <path class="st0" d="M78.44,4.79v58.08l-13.44,13.44V18.23l13.44-13.44ZM49.89,78.69h13.43v-13.41l-13.43,13.41ZM4.58,20.65v5.76l.08,49.8,13.34-13.34v-28.82l-13.42-13.4ZM32.31,63.6h-12.63l-15.14,15.14h12.69l14.67-14.67.41-.47ZM34.78,48.46l13.93-13.93L18.47,4.3l-13.93,13.93,30.23,30.23Z"/>
  <path class="st1" d="M80.96,3.11c0-.11-.02-.22-.06-.32-.09-.21-.25-.37-.45-.45-.21-.08-.44-.08-.64,0-.1.04-.2.1-.27.18l-15.11,15.11-14.52,14.52L20.25,2.52c-.33-.33-.86-.33-1.19,0L3.95,17.63c-.08.08-.14.17-.18.27-.04.1-.06.21-.06.32v60.46c0,.11.02.22.06.31h0s0,0,0,0c.06.14.16.25.27.33.03.02.05.04.08.06.12.07.26.13.42.13h15.12c.22,0,.44-.09.59-.25l15.12-15.12c.24-.24.31-.6.18-.92-.13-.31-.44-.52-.78-.52h-14.28v-27.36l13.68,13.68c.16.16.38.25.59.25s.43-.08.59-.25l15.12-15.12,13.68-13.68v42.97l-14.87,14.87c-.24.24-.31.6-.18.92.13.31.44.52.78.52h15.12s.06,0,.09,0h0s.09-.01.13-.03h0c.12-.04.24-.1.34-.19.07-.06.07-.06,0,0-.1.09,0,0,0,0h0s0,0,0,0,0,0,0,0c0,0,0,0,0,0,0,0,0,0,0,0l15.11-15.11c.08-.08.14-.17.18-.27.04-.1.06-.21.06-.32V3.11h0ZM32.75,64.41l-13.44,13.44H6.57l13.44-13.44h12.74ZM18.82,63.23l-13.44,13.44V20.25l13.44,13.44v29.54h0ZM34.78,47.27l-14.52-14.52h0s-14.52-14.52-14.52-14.52l13.93-13.93,29.04,29.04-13.93,13.93h0ZM64.17,77.85h-12.25l12.25-12.25v12.25ZM65.85,63.58V18.58l13.44-13.44v58.09l-13.44,13.44v-13.09h0Z"/>
  <path class="st1" d="M13.02,89.19h2.31v11h-2.06v-5.25c0-.74.04-1.41.11-2.01-.87,1.85-1.86,3.64-2.97,5.36h-1.76c-1.18-1.84-2.18-3.64-3-5.39.08.65.13,1.33.13,2.04v5.25h-2.07v-11h2.31c.99,2.42,2.17,4.7,3.52,6.85,1.29-2.04,2.45-4.33,3.49-6.85h0ZM17.6,95.82c0,1.48.37,2.61,1.12,3.38.75.78,1.83,1.17,3.24,1.17s2.49-.39,3.24-1.17c.74-.78,1.12-1.91,1.12-3.38v-6.63h-2.25v6.47c0,1.82-.69,2.73-2.1,2.73s-2.12-.91-2.12-2.73v-6.47h-2.25v6.63h0ZM37.45,100.18v-11h-2.25v4.45h-4.37v-4.45h-2.25v11h2.25v-4.63h4.37v4.63h2.25ZM48.8,100.18c-1.23-4.51-2.5-8.18-3.83-11h-2.34c-1.29,2.73-2.56,6.4-3.82,11h2.31c.22-.88.44-1.69.66-2.42h4.05l.66,2.42h2.31ZM45.27,95.85h-2.94c.61-2.03,1.1-3.46,1.48-4.27.35.74.83,2.17,1.46,4.27ZM52.23,100.18v-5.36c0-.7-.02-1.32-.06-1.87.71,1.3,1.42,2.48,2.14,3.53.71,1.06,1.59,2.29,2.64,3.69h2.18v-11h-2.07v6.49c0,.53.02.99.06,1.37-1.85-2.65-3.45-5.27-4.79-7.85h-2.17v11h2.07,0ZM68.16,100.18h2.31c-1.23-4.51-2.5-8.18-3.83-11h-2.34c-1.29,2.73-2.56,6.4-3.82,11h2.31c.22-.88.44-1.69.66-2.42h4.05l.66,2.42h0ZM66.93,95.85h-2.94c.61-2.03,1.1-3.46,1.48-4.27.35.74.83,2.17,1.46,4.27ZM71.82,100.18h3.68c1.65,0,2.98-.49,3.97-1.48.99-.99,1.49-2.36,1.49-4.04s-.49-3.02-1.48-4c-.99-.98-2.32-1.47-3.98-1.47h-3.68v11h0ZM75.43,91.11c2.14,0,3.2,1.14,3.2,3.55s-1.07,3.61-3.2,3.61h-1.37v-7.16h1.37ZM11.39,114.71h2.31c-1.23-4.51-2.5-8.18-3.83-11h-2.34c-1.29,2.73-2.56,6.4-3.82,11h2.31c.22-.88.44-1.69.66-2.42h4.05l.66,2.42h0ZM10.16,110.37h-2.94c.61-2.03,1.1-3.46,1.48-4.27.35.74.83,2.17,1.46,4.27ZM21.74,114.71v-1.92h-4.45v-9.08h-2.25v11h6.69ZM29.48,105.63v-1.92h-8.09v1.92h2.92v9.08h2.25v-9.08h2.92ZM35.28,103.52c-1.56,0-2.78.52-3.66,1.56-.88,1.04-1.32,2.42-1.32,4.12s.44,3.08,1.33,4.12c.88,1.04,2.1,1.56,3.65,1.56s2.77-.52,3.64-1.56c.88-1.04,1.32-2.42,1.32-4.12s-.44-3.08-1.32-4.12c-.88-1.04-2.08-1.56-3.64-1.56ZM35.28,105.5c.86,0,1.51.33,1.96.99.45.66.68,1.57.68,2.72s-.23,2.06-.68,2.72c-.45.66-1.09.99-1.96.99s-1.53-.33-1.98-.99c-.45-.66-.68-1.57-.68-2.72s.23-2.06.68-2.72,1.12-.99,1.98-.99ZM42.01,110.34c0,1.48.37,2.61,1.12,3.38.75.78,1.83,1.17,3.24,1.17s2.49-.39,3.24-1.17c.74-.78,1.12-1.91,1.12-3.38v-6.63h-2.25v6.47c0,1.82-.69,2.73-2.1,2.73s-2.12-.91-2.12-2.73v-6.47h-2.25v6.63h0ZM59.34,114.71h2.58l-3.79-5.61c1.62-1.45,2.67-3.25,3.14-5.39h-2.25c-.46,2.13-1.72,3.83-3.79,5.11v-5.11h-2.25v11h2.25v-3.64c.48-.26.89-.5,1.23-.72l2.87,4.37h0ZM72.07,114.71v-11h-2.25v4.45h-4.37v-4.45h-2.25v11h2.25v-4.63h4.37v4.63h2.25ZM76.66,114.71v-11h-2.25v11h2.25Z"/>
</svg>