<?xml version="1.0" encoding="UTF-8"?>
<svg id="Layer_1" xmlns="http://www.w3.org/2000/svg" version="1.1" viewBox="0 0 30.87 46.24">
  <!-- Generator: Adobe Illustrator 30.0.0, SVG Export Plug-In . SVG Version: 2.1.1 Build 123)  -->
  <defs>
    <style>
      .st0 {
        fill: #fff;
      }
    </style>
  </defs>
  <path class="st0" d="M15.44,43.63c-7.45,0-13.5-6.06-13.5-13.5v-14.01C1.93,8.67,7.99,2.61,15.44,2.61s13.5,6.06,13.5,13.5v14.01c0,7.45-6.06,13.5-13.5,13.5ZM15.44,5.61c-5.79,0-10.5,4.71-10.5,10.5v14.01c0,5.79,4.71,10.5,10.5,10.5s10.5-4.71,10.5-10.5v-14.01c0-5.79-4.71-10.5-10.5-10.5ZM16.94,20.7v-7.96c0-.83-.67-1.5-1.5-1.5s-1.5.67-1.5,1.5v7.96c0,.83.67,1.5,1.5,1.5s1.5-.67,1.5-1.5Z"/>
</svg>