<?xml version="1.0" encoding="UTF-8"?>
<svg id="Layer_1" xmlns="http://www.w3.org/2000/svg" version="1.1" viewBox="0 0 100 100">
  <!-- Generator: Adobe Illustrator 30.3.0, SVG Export Plug-In . SVG Version: 2.1.3 Build 182)  -->
  <defs>
    <style>
      .st0 {
        fill: #2b4e5e;
      }
    </style>
  </defs>
  <rect class="st0" x="86.09" y="53.25" width="2.35" height=".43" transform="translate(26.04 135.47) rotate(-84.75)"/>
  <path class="st0" d="M86.95,58.45c-1.08-.33-2.02-.3-2.83.08-.81.38-1.38,1.12-1.71,2.21-.2.67-.26,1.32-.16,1.95l3.16.97.63-2.05-.41-.12-.49,1.6-2.49-.76c-.03-.47.04-.95.19-1.45.29-.93.79-1.56,1.5-1.88.71-.32,1.54-.34,2.46-.05.89.27,1.56.73,2.01,1.36.45.64.54,1.39.28,2.26-.19.62-.5,1.16-.93,1.64l.37.25c.45-.48.77-1.07.99-1.77.31-1,.21-1.88-.28-2.63-.5-.75-1.26-1.28-2.28-1.6Z"/>
  <path class="st0" d="M83.79,64.77c-.72-.37-1.38-.49-2-.36s-1.08.5-1.4,1.13c-.32.63-.36,1.24-.1,1.81s.74,1.04,1.46,1.41c.72.37,1.38.49,1.99.36s1.08-.51,1.4-1.14c.32-.63.36-1.23.1-1.8s-.74-1.04-1.46-1.41ZM84.76,67.78c-.27.52-.64.82-1.13.89-.49.07-1.04-.05-1.65-.36s-1.04-.69-1.26-1.13-.2-.92.06-1.44c.26-.51.63-.8,1.12-.88s1.04.04,1.66.35,1.03.7,1.26,1.14c.22.44.2.92-.06,1.43Z"/>
  <path class="st0" d="M81.84,73.16l-.33-.26-.49.62-2.6-2.04c-.78-.62-1.46-.56-2.03.16-.15.19-.26.4-.35.63l.35.23c.07-.19.19-.38.34-.58.19-.24.39-.37.62-.4s.48.08.79.32l2.6,2.04-.91,1.16.33.26.91-1.16,1.01.79.26-.4-.98-.77.49-.62Z"/>
  <path class="st0" d="M75.74,73.56c-.62-.07-1.18.15-1.68.64-.5.5-.72,1.07-.66,1.69.07.62.38,1.22.95,1.79.57.57,1.16.89,1.78.96.62.07,1.18-.15,1.69-.65.5-.5.72-1.06.65-1.68-.06-.62-.38-1.22-.95-1.79-.57-.57-1.17-.89-1.79-.96ZM77.52,77.68c-.41.41-.86.58-1.35.5s-.97-.37-1.46-.85c-.49-.49-.77-.98-.85-1.46-.08-.49.09-.93.5-1.35.4-.4.85-.57,1.34-.49.49.08.98.36,1.47.85.49.49.77.98.84,1.47s-.09.94-.5,1.34Z"/>
  <path class="st0" d="M69.92,78.92c-.57-.15-1.16-.03-1.75.34-.47.29-.79.64-.95,1.05l-.39-.63c-.22-.36-.29-.7-.2-1.04s.35-.65.79-.92c.4-.25.86-.44,1.37-.55l-.13-.42c-.5.1-.99.31-1.48.61-.54.34-.88.73-1.02,1.17-.14.45-.05.92.27,1.43l2.62,4.2c.52,0,1.06-.18,1.64-.54.64-.4,1.02-.91,1.15-1.53.13-.62-.02-1.27-.45-1.95-.41-.65-.9-1.05-1.47-1.2ZM71.38,82.01c-.09.5-.39.91-.9,1.23-.37.23-.76.38-1.16.43l-1.86-2.98c.16-.42.47-.77.91-1.05.48-.3.95-.38,1.41-.25.46.13.86.47,1.2,1.01.36.57.49,1.1.39,1.61Z"/>
  <path class="st0" d="M65.57,85.8c-.88.38-1.5.15-1.85-.69l-.27-.63c.46-.09.89-.22,1.29-.39.53-.23.91-.53,1.15-.9s.25-.8.04-1.28c-.18-.41-.46-.68-.87-.79-.4-.12-.88-.06-1.43.18-.68.29-1.2.69-1.55,1.2l1.2,2.8c.47,1.1,1.29,1.4,2.46.9.53-.23.96-.52,1.29-.86l-.29-.33c-.33.34-.72.61-1.16.8ZM62.61,82.55c.24-.34.62-.63,1.16-.86.41-.18.76-.23,1.06-.16s.51.26.65.58c.3.7,0,1.24-.92,1.64-.39.17-.82.29-1.27.37l-.67-1.56Z"/>
  <path class="st0" d="M59.16,82.89c-.12.04-.24.09-.34.15l.17.38c.09-.05.18-.09.26-.11.26-.08.46-.06.61.07s.27.35.37.69l1.74,5.78.45-.17-1.73-5.76c-.27-.91-.78-1.25-1.53-1.03Z"/>
  <path class="st0" d="M56.72,83.47c-.13.03-.24.07-.35.13l.14.39c.1-.04.19-.07.27-.09.26-.06.46-.02.6.11.14.13.24.37.32.71l1.3,5.89.46-.13-1.3-5.87c-.21-.93-.69-1.3-1.45-1.14Z"/>
  <path class="st0" d="M55.01,84.49c-.5-.41-1.16-.58-1.96-.5-.63.06-1.19.24-1.65.53l.15.4c.5-.28,1.01-.45,1.52-.5.65-.07,1.18.06,1.59.39.41.32.66.84.75,1.55l-3.78.38c0,.18,0,.37.02.55.06.63.29,1.13.68,1.5s.91.53,1.56.47c.71-.07,1.24-.37,1.59-.9.36-.53.49-1.19.42-1.97-.09-.86-.38-1.5-.89-1.91ZM55.05,88.2c-.27.38-.67.59-1.2.65-.52.05-.92-.07-1.21-.37s-.45-.69-.5-1.16c0-.09-.01-.17-.01-.22l3.31-.33c.01.58-.12,1.07-.39,1.44Z"/>
  <path class="st0" d="M49.34,88.62c-.47.26-1.03.38-1.68.36-.14,0-.26-.02-.36-.05l-.08.43c.16.03.31.04.45.04.82.02,1.54-.14,2.15-.48l.13-4.67h-.48s-.12,4.37-.12,4.37Z"/>
  <path class="st0" d="M47.08,82.75l-.05-.44c-.95.09-1.8.61-2.54,1.55-1.28,1.62-2.15,3.19-2.63,4.7l.47.07c.25-.81.56-1.54.94-2.21.37-.67.83-1.37,1.38-2.1.67,1.71,1.02,3.32,1.04,4.83l.47.07c0-1.76-.4-3.51-1.19-5.27.59-.72,1.29-1.12,2.09-1.19Z"/>
  <rect class="st0" x="37.57" y="84.22" width=".43" height="2.35" transform="translate(-55.26 93.31) rotate(-71)"/>
  <path class="st0" d="M26.82,84.38l.43.25c1.66-1.71,3.42-3.24,5.29-4.59-.23,2.26-.69,4.56-1.36,6.88l.43.25c.69-2.43,1.17-4.9,1.42-7.41l-.47-.27c-2.05,1.46-3.97,3.09-5.74,4.9Z"/>
  <path class="st0" d="M28.59,80.01c.51-.63.76-1.25.76-1.88,0-.63-.27-1.16-.82-1.6-.55-.45-1.14-.61-1.75-.47-.61.13-1.17.51-1.68,1.14-.51.63-.76,1.25-.76,1.88,0,.62.28,1.16.83,1.61.55.44,1.13.6,1.74.47.61-.13,1.17-.51,1.68-1.13ZM25.44,80.35c-.45-.37-.67-.8-.64-1.29.03-.49.26-1.01.69-1.54.43-.54.89-.87,1.37-1,.48-.13.94-.01,1.39.36.44.36.65.79.63,1.28-.02.5-.25,1.01-.69,1.55-.44.54-.89.87-1.37.99-.48.13-.94,0-1.38-.35Z"/>
  <rect class="st0" x="21.18" y="75.52" width="5.09" height=".48" transform="translate(-46.22 38.22) rotate(-44.39)"/>
  <path class="st0" d="M20.78,78.27c-.1,0-.18.04-.26.12-.07.07-.11.15-.12.25s.03.18.1.26c.08.08.17.12.27.12.1,0,.18-.04.26-.11.08-.08.12-.16.12-.26s-.04-.19-.12-.27c-.08-.08-.16-.11-.26-.11Z"/>
  <path class="st0" d="M24.1,72.42l-.3-.37-3.38,2.78c-.5-.18-.96-.53-1.37-1.03-.09-.11-.16-.21-.2-.31l-.38.22c.09.14.17.26.26.36.52.63,1.11,1.07,1.77,1.3l3.61-2.97Z"/>
  <path class="st0" d="M20.19,66.63c-.06-.11-.14-.21-.23-.29l-.32.25c.07.08.13.15.17.23.14.23.16.44.08.61s-.28.35-.58.52l-5.2,3.05.27.4,5.19-3.04c.82-.48,1.03-1.06.63-1.73Z"/>
  <path class="st0" d="M15.2,67.15c-.35-.33-.62-.71-.81-1.15-.39-.87-.17-1.49.66-1.86l.63-.28c.09.46.23.89.4,1.29.23.53.54.91.91,1.14.37.23.8.24,1.28.03.41-.18.67-.47.78-.88.11-.4.05-.88-.2-1.43-.3-.68-.71-1.19-1.22-1.54l-2.79,1.24c-1.1.49-1.39,1.31-.87,2.47.23.53.53.95.88,1.28l.33-.29ZM17.61,63.01c.35.23.64.61.88,1.15.18.41.24.76.17,1.06-.07.3-.26.51-.57.65-.69.31-1.24,0-1.65-.9-.17-.39-.3-.81-.38-1.26l1.55-.69Z"/>
  <path class="st0" d="M15.92,58.52c.34-.49.44-1.07.3-1.75-.11-.54-.32-.96-.65-1.26l.73-.15c.41-.08.76-.02,1.05.18.29.21.48.56.58,1.07.09.46.11.96.04,1.47l.44.03c.08-.5.06-1.03-.05-1.6-.13-.62-.37-1.08-.74-1.36s-.84-.37-1.43-.25l-4.85.97c-.18.49-.2,1.06-.07,1.72.15.74.49,1.27,1.03,1.61s1.2.43,1.98.27c.76-.15,1.3-.47,1.64-.96ZM12.52,58.79c-.44-.27-.71-.69-.83-1.27-.09-.43-.09-.84,0-1.23l3.45-.69c.34.3.56.71.66,1.23.11.55.02,1.02-.27,1.41-.29.39-.75.64-1.37.77-.66.13-1.21.07-1.64-.2Z"/>
  <path class="st0" d="M11.02,52.02c-.04-.95.39-1.45,1.29-1.49l.69-.03c-.08.46-.11.91-.09,1.35.03.58.17,1.04.44,1.39.26.35.66.51,1.19.49.45-.02.8-.2,1.05-.53.25-.33.36-.8.34-1.4-.03-.74-.23-1.37-.58-1.88l-3.04.14c-1.2.06-1.77.72-1.71,1.98.03.58.15,1.08.35,1.51l.41-.15c-.2-.43-.32-.89-.34-1.37ZM13.41,50.47l1.69-.08c.24.34.37.8.4,1.38.02.45-.05.8-.22,1.05s-.42.39-.77.4c-.76.04-1.16-.44-1.21-1.44-.02-.43.01-.86.1-1.32Z"/>
  <path class="st0" d="M15.99,47.03c0-.13,0-.25-.03-.37l-.41.02c.01.1.02.2.01.29-.02.27-.11.45-.27.55-.17.09-.42.13-.78.11l-6.03-.39v.48s6.01.39,6.01.39c.95.06,1.45-.3,1.5-1.08Z"/>
  <path class="st0" d="M16.3,44.54c.02-.13.02-.25,0-.37h-.41c0,.1,0,.19,0,.28-.04.27-.14.44-.31.53s-.43.1-.78.05l-5.98-.83-.04.48,5.96.83c.94.13,1.46-.19,1.57-.96Z"/>
  <path class="st0" d="M13.83,42.78c.84.22,1.54.16,2.1-.17.56-.33.95-.89,1.15-1.67.16-.62.19-1.2.07-1.74h-.43c.09.57.07,1.11-.06,1.61-.16.63-.47,1.08-.92,1.35-.45.27-1.02.33-1.72.16l.96-3.68c-.17-.07-.35-.12-.52-.17-.61-.16-1.16-.12-1.65.12s-.82.67-.98,1.3c-.18.69-.08,1.29.29,1.81.37.52.94.88,1.7,1.07ZM12.26,40c.13-.5.39-.84.77-1s.8-.19,1.26-.07c.09.02.16.05.21.07l-.84,3.22c-.55-.19-.96-.48-1.22-.87s-.32-.84-.19-1.35Z"/>
  <path class="st0" d="M13.6,36.15l4.33,1.76.18-.44-4.06-1.65c-.08-.53,0-1.09.25-1.7.05-.13.11-.24.18-.32l-.38-.23c-.08.14-.15.28-.2.4-.31.76-.41,1.49-.31,2.18Z"/>
  <rect class="st0" x="17.01" y="30.67" width=".48" height="5.09" transform="translate(-20.18 33.41) rotate(-62.86)"/>
  <path class="st0" d="M13.4,31.66c.1.05.19.06.29.03s.17-.09.22-.2c.05-.1.06-.19.02-.28-.03-.09-.1-.16-.2-.21-.09-.05-.18-.06-.27-.03s-.16.09-.21.18c-.05.1-.06.2-.03.29.03.09.09.16.18.21Z"/>
  <path class="st0" d="M18.13,31.44c.72.48,1.4.66,2.04.53.64-.13,1.18-.53,1.63-1.2.35-.53.56-1.07.64-1.62l-.41-.14c-.1.57-.29,1.07-.58,1.5-.36.54-.8.87-1.31.98-.51.11-1.07-.02-1.67-.41l2.11-3.17c-.14-.12-.29-.23-.44-.33-.52-.35-1.06-.49-1.6-.43-.54.06-.99.37-1.35.91-.39.59-.5,1.19-.31,1.81.18.61.6,1.13,1.26,1.57ZM17.54,28.3c.29-.43.64-.67,1.06-.7.41-.03.82.09,1.21.35.08.05.14.1.18.13l-1.84,2.77c-.46-.36-.75-.77-.87-1.22-.12-.45-.03-.9.26-1.34Z"/>
  <rect class="st0" x="22.02" y="23.66" width="2.35" height=".43" transform="translate(-10.09 23.83) rotate(-45.74)"/>
  <path class="st0" d="M38.7,16.51c-.1-.35-.23-.67-.39-.98-.34-.62-.76-1.03-1.27-1.25-.51-.21-1.06-.16-1.65.16-.63.34-1.12.87-1.47,1.59-.35.72-.59,1.71-.73,2.97-.27-.42-.7-.93-1.28-1.52l-.31.34c.64.62,1.14,1.27,1.51,1.94.33.61.37,1.23.12,1.84s-.78,1.14-1.57,1.57c-.7.38-1.29.51-1.79.38-.5-.12-.89-.45-1.18-.99-.33-.6-.52-1.28-.57-2.04l-.43.04c.04.85.26,1.62.64,2.32.35.65.83,1.04,1.44,1.19.6.14,1.29,0,2.07-.42.95-.52,1.57-1.14,1.85-1.85.28-.72.24-1.46-.14-2.23.78-.12,1.62-.43,2.53-.92,1.29-.7,2.17-1.41,2.65-2.15ZM33.6,19.04c.18-1.25.42-2.18.7-2.79s.71-1.07,1.28-1.38c.44-.24.87-.28,1.3-.12s.8.54,1.13,1.15c.1.19.18.34.22.46-.61.68-1.39,1.28-2.33,1.79-.83.45-1.59.75-2.3.89Z"/>
  <polygon class="st0" points="35.11 13.03 34.48 12.88 34.35 13.49 34.97 13.62 35.11 13.03"/>
  <path class="st0" d="M53.79,15.97c.74.08,1.36-.03,1.87-.33.19.33.54.52,1.05.61,0,.02,0,.03,0,.05.03.06.07.09.13.11l.08.02c.35.09.71.14,1.08.16.38.02.68,0,.9-.05.18-.32.32-.65.43-.99.11-.34.27-.96.5-1.86.2-.79.51-2.08.93-3.88l-.47-.06c-.46,1.98-.79,3.35-.98,4.12-.23.9-.46,1.65-.7,2.24-.42.04-.91-.01-1.46-.14l.02-.15-.25-.03c-.36-.04-.61-.13-.76-.27-.15-.15-.25-.41-.3-.81-.11-.82-.28-1.41-.51-1.78-.22-.37-.58-.59-1.05-.63-.44-.05-.81.04-1.11.25s-.61.57-.95,1.08c-.4.62-.73,1.03-1,1.24-.27.2-.63.28-1.08.24h-.11s-.07,0-.1.03l-.21.02c-.96.09-1.85-.02-2.68-.32.49-.41.87-.86,1.16-1.36.29-.5.46-1,.53-1.5-.72-.28-1.54-.38-2.47-.29-.81.07-1.57.26-2.28.56.13.54.39,1.04.78,1.51s.86.86,1.42,1.17c-.77.44-1.66.71-2.67.81l-.24.02c-.06,0-.11.04-.15.09,0,0,0,.02,0,.03-.82.19-1.44-.06-1.85-.76-.11-.19-.24-.44-.41-.74-.16-.31-.29-.55-.39-.72l-.39.23c.55.98.89,1.71,1.02,2.19.2.73.19,1.4-.03,2.01-.22.61-.68,1-1.38,1.19-.21.06-.4.09-.57.1l.04.45c.23-.02.46-.06.67-.12.74-.2,1.27-.62,1.6-1.25s.36-1.44.1-2.43c.46.42,1.03.53,1.72.35l.35-.1v-.05c1.14-.11,2.15-.47,3.02-1.06.94.44,1.97.6,3.11.5l.5-.05c.28.01.52,0,.73-.06.24-.07.47-.22.68-.43.6.5,1.31.79,2.12.87ZM52.57,13.9c.31-.47.58-.79.83-.96.25-.17.51-.24.79-.21.38.04.65.21.82.53.17.31.31.85.42,1.61.01.08.03.19.06.33-.4.27-.94.36-1.6.3-.67-.07-1.3-.32-1.88-.77.2-.27.39-.54.57-.83ZM46.64,14.62c-1.01-.48-1.71-1.21-2.1-2.16.64-.2,1.21-.33,1.72-.37.63-.06,1.3,0,2.02.18-.27.96-.81,1.74-1.64,2.35Z"/>
  <polygon class="st0" points="61 17.56 63.33 10.58 62.87 10.48 60.56 17.41 61 17.56"/>
  <path class="st0" d="M65.65,22.27c.83.48,1.62.68,2.37.6s1.36-.42,1.81-1.01c.11.08.23.17.37.25,0,.02-.02.04-.02.07,0,.06.03.11.07.15l.06.05c.28.23.59.43.92.6.33.18.61.29.84.33.29-.21.56-.45.8-.72.24-.26.65-.76,1.23-1.48.51-.63,1.33-1.68,2.47-3.14l-.4-.25c-1.25,1.61-2.12,2.72-2.62,3.33-.58.72-1.11,1.3-1.57,1.74-.39-.14-.81-.39-1.26-.73l.09-.16-.09-.05c-.95-.55-1.81-1.26-2.59-2.13l-.33.33c.54.6,1.09,1.11,1.65,1.53-.38.51-.88.79-1.51.83s-1.29-.13-1.97-.53c-.71-.41-1.14-.87-1.3-1.38-.16-.51-.07-1.04.26-1.6.33-.57.81-1.09,1.44-1.55l-.24-.35c-.7.48-1.25,1.07-1.66,1.76-.38.66-.48,1.3-.28,1.91s.68,1.14,1.46,1.59Z"/>
  <polygon class="st0" points="73.57 25.16 78.6 19.79 78.22 19.51 73.23 24.84 73.57 25.16"/>
  <path class="st0" d="M72.45,25.67c.14,0,.26.07.38.18.13.12.25.29.35.5l.31-.14c-.1-.26-.24-.48-.41-.63-.19-.18-.39-.27-.62-.27-.23,0-.44.1-.64.31-.25.27-.31.58-.18.95-.14-.07-.38-.17-.72-.3l-.14.31c.7.29,1.33.61,1.89.97l.18-.29c-.4-.25-.61-.39-.65-.42-.17-.16-.27-.33-.29-.52-.02-.18.03-.34.15-.47.11-.12.24-.17.37-.17Z"/>
  <polygon class="st0" points="76.53 31.89 77.12 31.98 77.23 31.34 76.6 31.26 76.53 31.89"/>
  <path class="st0" d="M77.24,27.15c-.13.2-.22.44-.25.73-.03.29.03.65.2,1.08.16.42.42.91.78,1.45.56.85,1.06,1.5,1.51,1.96.45.46.89.74,1.32.84-.11.58.03,1.19.39,1.84-.02.02-.04.02-.06.05-.03.05-.04.11-.02.17l.05.15c.25.7.59,1.3,1.01,1.8-.11.47-.15.97-.13,1.5.03.53.1.96.22,1.3.25.7.74.92,1.48.66.69-.25,1.25-.79,1.69-1.63s.65-1.82.64-2.93c-1.05-.65-1.95-.83-2.71-.56-.47.17-.82.55-1.05,1.14-.24-.37-.45-.82-.64-1.32l.19-.12-.03-.05c-.27-.41-.44-.77-.51-1.06s-.09-.59-.05-.89c.3-.03.61-.15.92-.35l1.1-.72-.28-.36-1.07.7c-.22.15-.44.23-.64.25-.21.02-.45-.03-.73-.16-.28-.13-.59-.39-.95-.78-.35-.39-.74-.91-1.17-1.57-.33-.5-.57-.94-.72-1.32-.16-.38-.22-.7-.2-.95.02-.25.08-.46.19-.62.11-.16.26-.31.47-.44.33-.22.83-.43,1.48-.63l-.13-.41c-.69.18-1.27.42-1.72.71-.25.17-.45.35-.58.55ZM83.6,35.89c.57-.2,1.25-.06,2.03.43-.08.81-.48,1.35-1.2,1.61-.22.08-.5.06-.82-.07-.32-.13-.64-.37-.96-.74.19-.66.51-1.07.95-1.23ZM82.54,37.6c.74.68,1.44.91,2.09.68.42-.15.72-.37.92-.65-.43,1.47-1.11,2.36-2.04,2.7-.2.07-.36.07-.49,0-.13-.06-.24-.21-.32-.45-.1-.27-.16-.62-.2-1.04s-.02-.83.04-1.23Z"/>
  <path class="st0" d="M83.92,42.93c-.09-.49-.15-.96-.18-1.42l-.48.09c0,.41.05.85.14,1.33.2,1.09.54,1.92,1.01,2.49.13,0,.29-.01.47-.04.5-.09,1.03-.36,1.59-.81.56-.45,1.11-1.12,1.65-2.02l-.39-.26c-.51.8-.99,1.42-1.46,1.85-.46.43-1,.71-1.59.86-.36-.55-.61-1.23-.76-2.06Z"/>
  <polygon class="st0" points="89.76 42.16 89.22 41.85 88.91 42.39 89.42 42.71 89.76 42.16"/>
  <polygon class="st0" points="84.16 47.46 91.49 46.88 91.4 46.41 84.12 47 84.16 47.46"/>
</svg>