<?xml version="1.0" encoding="UTF-8"?>
<svg id="Layer_1" xmlns="http://www.w3.org/2000/svg" version="1.1" viewBox="0 0 100 100">
  <!-- Generator: Adobe Illustrator 30.3.0, SVG Export Plug-In . SVG Version: 2.1.3 Build 182)  -->
  <defs>
    <style>
      .st0 {
        fill: #fff;
      }
    </style>
  </defs>
  <path class="st0" d="M50,69.51c-6.89,0-12.5-5.61-12.5-12.5v-14.01c0-6.89,5.61-12.5,12.5-12.5s12.5,5.61,12.5,12.5v14.01c0,6.89-5.61,12.5-12.5,12.5ZM50,31.49c-6.34,0-11.5,5.16-11.5,11.5v14.01c0,6.34,5.16,11.5,11.5,11.5s11.5-5.16,11.5-11.5v-14.01c0-6.34-5.16-11.5-11.5-11.5Z"/>
  <path class="st0" d="M50,48.07c-.28,0-.5-.22-.5-.5v-7.96c0-.28.22-.5.5-.5s.5.22.5.5v7.96c0,.28-.22.5-.5.5Z"/>
</svg>