<?xml version="1.0" encoding="UTF-8"?>
<svg id="Layer_1" xmlns="http://www.w3.org/2000/svg" version="1.1" viewBox="0 0 100 100">
  <!-- Generator: Adobe Illustrator 30.3.0, SVG Export Plug-In . SVG Version: 2.1.3 Build 182)  -->
  <defs>
    <style>
      .st0 {
        fill: #fff;
      }
    </style>
  </defs>
  <rect class="st0" x="85.69" y="53.15" width="2.52" height=".46" transform="translate(26 135.2) rotate(-84.86)"/>
  <path class="st0" d="M88.51,59.29c-.54-.16-1.01-.13-1.4.09s-.8.64-1.21,1.24c-.21.32-.39.56-.53.74-.14.18-.31.34-.51.5-.2.16-.4.26-.62.29-.22.03-.46,0-.71-.07-.49-.15-.81-.43-.95-.84-.14-.41-.12-.92.06-1.52.17-.55.5-1.17,1-1.87l-.44-.25c-.44.53-.78,1.2-1.02,1.99-.21.7-.23,1.32-.06,1.88s.59.93,1.25,1.14c.35.11.66.14.94.1s.54-.15.78-.34c.24-.19.44-.38.6-.57s.36-.46.59-.81c.36-.53.69-.89.99-1.08.29-.2.66-.23,1.1-.09.9.27,1.17,1.01.81,2.2-.13.44-.37.92-.72,1.45l.4.23c.36-.48.62-1,.8-1.58.21-.7.22-1.3.04-1.81-.19-.5-.58-.85-1.17-1.03Z"/>
  <path class="st0" d="M83.59,64.11c-.81-.39-1.54-.49-2.18-.28-.64.21-1.15.71-1.54,1.49-.24.49-.35.99-.32,1.49l.45.07c0-.49.09-.93.29-1.34.32-.65.74-1.06,1.26-1.22.52-.16,1.13-.07,1.82.27.67.33,1.13.74,1.37,1.25s.22,1.06-.08,1.66c-.19.4-.49.77-.87,1.13l.33.31c.4-.33.71-.75.96-1.24.36-.74.4-1.42.12-2.06-.28-.63-.81-1.15-1.61-1.53Z"/>
  <path class="st0" d="M78.34,68.23l3.91,2.59c-.03.57-.24,1.15-.62,1.73-.08.13-.17.23-.25.3l.35.32c.11-.13.21-.26.29-.38.49-.73.75-1.47.78-2.22l-4.18-2.77-.28.43Z"/>
  <path class="st0" d="M78.81,72.42c-.65-.58-1.3-.88-1.97-.91-.67-.03-1.26.23-1.76.79-.51.57-.71,1.19-.6,1.85.11.66.49,1.28,1.13,1.86s1.3.88,1.97.91,1.26-.24,1.76-.81c.5-.56.7-1.18.59-1.84s-.48-1.28-1.13-1.85ZM79.01,75.8c-.42.47-.89.67-1.41.62-.53-.05-1.06-.33-1.62-.82-.55-.49-.89-1-1-1.51-.12-.52.04-1.01.45-1.47.41-.46.87-.66,1.4-.61.53.05,1.07.32,1.62.81.55.49.88,1,.99,1.52.11.52-.04,1.01-.44,1.46Z"/>
  <path class="st0" d="M71.42,75.85c-.1.09-.19.19-.26.3l.33.29c.07-.09.14-.16.21-.22.22-.19.43-.26.62-.2.2.05.42.22.67.51l4.24,4.89.37-.36-4.23-4.87c-.67-.77-1.32-.88-1.95-.33Z"/>
  <path class="st0" d="M69.3,77.47c-.11.08-.21.17-.28.28l.3.32c.08-.08.15-.15.23-.21.23-.17.45-.22.64-.15.19.07.4.26.62.56l3.84,5.2.39-.33-3.83-5.19c-.6-.82-1.24-.98-1.91-.48Z"/>
  <path class="st0" d="M65.93,80.43c-.64-.24-1.33-.19-2.06.15-.67.31-1.14.71-1.43,1.19l3.16,6.83.45-.25-1.04-2.24c.39-.02.76-.11,1.12-.28.82-.38,1.34-.91,1.56-1.59.22-.68.13-1.43-.25-2.26-.37-.79-.87-1.31-1.52-1.55ZM67.2,84.11c-.17.56-.6,1-1.27,1.31-.34.16-.72.24-1.13.23l-1.78-3.84c.18-.31.53-.58,1.05-.82.58-.27,1.13-.3,1.66-.08s.93.64,1.23,1.29c.33.71.41,1.35.24,1.91Z"/>
  <path class="st0" d="M60.5,82.76c-.54-.4-1.18-.5-1.91-.31-.74.19-1.24.6-1.52,1.21-.27.61-.3,1.34-.08,2.17.22.84.6,1.45,1.14,1.84.54.39,1.18.5,1.91.3.73-.19,1.23-.59,1.51-1.2.27-.61.3-1.33.08-2.17-.22-.83-.6-1.45-1.14-1.85ZM61.11,86.56c-.2.5-.59.82-1.18.98-.6.16-1.11.07-1.52-.26-.41-.33-.71-.86-.89-1.58-.19-.72-.19-1.32,0-1.81.19-.49.58-.82,1.19-.98.59-.16,1.09-.07,1.51.27.41.33.72.86.91,1.57.19.72.18,1.32-.01,1.82Z"/>
  <path class="st0" d="M53.77,83.54l-.53.03c-.56,1.26-.96,2.45-1.21,3.57-.35-1-.89-2.14-1.62-3.42l-.53.03c-.45,1.01-.8,1.94-1.06,2.81-.26.86-.43,1.78-.51,2.74l.51-.03c.06-.88.2-1.71.42-2.49.22-.78.53-1.64.93-2.57.93,1.68,1.56,3.31,1.88,4.89l.5-.03c-.07-.37-.16-.73-.25-1.08.2-1.22.6-2.54,1.22-3.96.94,1.67,1.57,3.3,1.89,4.89l.51-.03c-.19-.96-.46-1.85-.8-2.69-.34-.83-.79-1.72-1.34-2.67Z"/>
  <path class="st0" d="M45.64,88.19c-.54.2-1.14.25-1.79.15-.52-.08-.88-.27-1.1-.58-.21-.31-.28-.68-.21-1.14l.56-3.6-.51-.08-.57,3.63c-.09.6,0,1.09.29,1.47.29.39.77.63,1.46.74.79.12,1.56.05,2.32-.21l.77-4.97-.51-.08-.73,4.65Z"/>
  <polygon class="st0" points="35.5 84.44 37.86 85.34 38.02 84.91 35.67 84.01 35.5 84.44"/>
  <polygon class="st0" points="31.12 82.05 28.53 80.4 28.28 80.79 30.87 82.44 29.14 85.15 26.01 83.16 25.76 83.55 29.32 85.82 33.42 79.39 32.99 79.12 31.12 82.05"/>
  <path class="st0" d="M26.49,80.58c-.49-.15-.93-.4-1.32-.73-.78-.66-.86-1.36-.23-2.11l.48-.57c.31.4.64.75.99,1.05.47.4.94.62,1.41.67.47.05.88-.14,1.25-.58.31-.37.42-.77.34-1.21-.08-.44-.37-.87-.86-1.29-.61-.51-1.24-.82-1.89-.91l-2.11,2.5c-.83.98-.72,1.91.32,2.79.47.4.95.67,1.45.82l.18-.43ZM26.87,75.45c.44.06.9.29,1.38.69.37.31.59.62.66.94.08.32,0,.62-.24.9-.52.62-1.19.59-2.01-.1-.35-.29-.67-.64-.96-1.04l1.17-1.39Z"/>
  <path class="st0" d="M20.24,77.56c-.1,0-.2.04-.28.12-.08.07-.12.16-.13.27s.03.2.11.28c.08.09.18.14.28.14.1,0,.2-.04.28-.11.08-.08.13-.17.14-.28,0-.1-.03-.2-.12-.29-.08-.08-.17-.13-.27-.12Z"/>
  <rect class="st0" x="20.72" y="74.67" width="5.46" height=".51" transform="translate(-44.97 36.41) rotate(-43.24)"/>
  <path class="st0" d="M23.91,71.34l-.31-.41-3.72,2.87c-.53-.21-1.01-.59-1.44-1.15-.09-.12-.16-.23-.21-.34l-.42.23c.09.15.18.29.27.4.54.7,1.16,1.18,1.86,1.46l3.97-3.07Z"/>
  <path class="st0" d="M19.49,70.08c.81-.46,1.3-1.03,1.49-1.71.18-.67.06-1.39-.37-2.14-.34-.59-.75-1.05-1.25-1.38l-.33.33c.5.37.88.79,1.16,1.27.35.61.45,1.18.31,1.72-.14.54-.54,1.01-1.2,1.41l-2.03-3.54c-.18.08-.36.17-.53.26-.59.34-.98.78-1.18,1.33-.2.55-.12,1.12.22,1.73.38.66.91,1.05,1.58,1.17.67.12,1.38-.04,2.11-.45ZM17.36,70.02c-.49-.1-.87-.4-1.16-.89-.28-.49-.33-.93-.16-1.35s.48-.74.92-1c.09-.05.16-.09.21-.11l1.77,3.09c-.57.27-1.1.35-1.59.25Z"/>
  <path class="st0" d="M17.45,60.99c.34-.6.4-1.29.18-2.06-.2-.71-.52-1.24-.95-1.6l-7.24,2.05.17.48,2.38-.67c-.04.39,0,.77.1,1.15.25.87.69,1.47,1.33,1.79s1.39.36,2.27.11c.84-.24,1.43-.65,1.77-1.25ZM13.62,61.66c-.53-.26-.89-.75-1.09-1.46-.1-.36-.12-.75-.05-1.15l4.07-1.15c.27.22.49.61.65,1.17.17.62.11,1.16-.18,1.65-.29.48-.78.82-1.47,1.01-.75.21-1.4.19-1.92-.07Z"/>
  <path class="st0" d="M14.02,55.52l-.42-4.05c-.2,0-.39,0-.59.03-.67.07-1.21.31-1.61.74s-.57.98-.5,1.67c.08.76.4,1.33.97,1.71s1.27.53,2.11.44c.92-.1,1.61-.41,2.05-.96.44-.54.62-1.24.53-2.1-.07-.68-.26-1.27-.58-1.77l-.43.17c.3.54.48,1.08.54,1.63.07.69-.07,1.26-.41,1.7s-.9.71-1.66.8ZM12.06,55.14c-.41-.29-.64-.72-.7-1.28-.06-.56.08-.99.4-1.29.32-.31.74-.49,1.24-.54.1-.01.18-.02.24-.01l.36,3.54c-.63.01-1.14-.12-1.55-.42Z"/>
  <polygon class="st0" points="10.11 53.73 8.55 52.81 8.61 53.4 10.17 54.23 10.11 53.73"/>
  <path class="st0" d="M10.08,49.39l.76.02-.03.85h.45s.02-.84.02-.84l5.01.15.02-.51-5.01-.15.05-1.57h-.45s-.05,1.56-.05,1.56l-.76-.02c-.42-.01-.74-.1-.95-.25-.21-.16-.31-.41-.3-.78,0-.17.04-.39.12-.66l-.43-.12c-.09.27-.14.54-.14.8-.03.98.54,1.49,1.7,1.52Z"/>
  <path class="st0" d="M9.38,45.61c.12.01.21-.01.3-.07.08-.06.13-.16.15-.28.01-.12-.01-.21-.08-.29s-.16-.12-.27-.14c-.11-.01-.2.01-.29.07-.08.06-.13.15-.15.26-.01.12.01.22.08.3.07.08.15.13.26.14Z"/>
  <rect class="st0" x="13.57" y="43" width=".51" height="5.46" transform="translate(-33.2 54.13) rotate(-83.31)"/>
  <path class="st0" d="M17.24,42.63c.03-.13.03-.27.02-.39l-.44-.03c0,.11,0,.21-.03.31-.06.28-.18.47-.37.54-.19.08-.47.08-.84,0l-6.34-1.27-.07.51,6.32,1.26c1,.2,1.58-.11,1.74-.93Z"/>
  <path class="st0" d="M14.72,40.55c.88.3,1.64.29,2.26-.02.63-.31,1.08-.88,1.35-1.7.22-.65.29-1.26.21-1.85l-.46-.03c.05.62,0,1.19-.18,1.71-.22.66-.58,1.12-1.08,1.38s-1.11.27-1.85.04l1.3-3.86c-.18-.08-.36-.16-.55-.22-.64-.22-1.23-.22-1.77,0-.54.22-.92.66-1.15,1.32-.24.72-.19,1.38.17,1.96.36.58.94,1.01,1.74,1.28ZM13.24,37.47c.18-.53.48-.87.9-1.01.42-.15.87-.14,1.35.02.1.03.17.06.22.09l-1.14,3.38c-.58-.25-.99-.59-1.24-1.02s-.28-.92-.1-1.46Z"/>
  <path class="st0" d="M19.71,35.22l-4.2-2.12c-.04-.57.1-1.17.42-1.79.07-.14.14-.25.22-.33l-.38-.28c-.1.15-.18.28-.25.41-.4.79-.57,1.55-.52,2.3l4.48,2.26.23-.46Z"/>
  <polygon class="st0" points="21.24 26.89 20.87 26.61 19.36 28.62 19.73 28.9 21.24 26.89"/>
  <polygon class="st0" points="32.14 14.44 31.47 14.26 31.32 14.91 31.98 15.06 32.14 14.44"/>
  <path class="st0" d="M43.3,16.92c.34-.09.62-.2.83-.34.21-.13.43-.31.66-.54.02-.32-.03-.71-.15-1.16-.15-.56-.39-1.16-.73-1.79l-.44.25c.36.66.62,1.27.77,1.84.05.19.09.37.11.54-.31.31-.68.53-1.11.65-.79.21-1.29-.1-1.51-.92l-.35-1.3-.44.17.35,1.34c.1.39.02.73-.25,1.02-.27.29-.64.49-1.09.61-.57.15-1.07.14-1.5-.02.04-.28.04-.59-.03-.92l-.21-1.06-.44.17.17.91c.1.52.07.9-.09,1.13s-.46.4-.88.51l-.32.08c-.06.02-.11.06-.14.12-.02.06-.02.12,0,.18-.62.31-1.23.54-1.81.67.59-.85.69-1.65.31-2.39-.28-.55-.68-.9-1.2-1.05s-1.02-.1-1.52.16-.84.64-1.02,1.14c-.18.5-.12,1.04.17,1.62.38.73,1.08,1.1,2.12,1.12-.41.38-.99.76-1.72,1.15l-.11-.13-.06.05c-.54.44-.99.65-1.35.63-.36-.02-.79-.33-1.29-.92l-3.5-4.18-.35.35c.54.65,1.05,1.26,1.53,1.83.48.57.86,1.02,1.15,1.37.29.35.55.66.8.95.24.29.43.51.55.65.12.15.23.27.32.38s.16.19.2.23l.1.13c.5.61.71,1.27.63,1.96-.08.69-.45,1.3-1.1,1.84-.58.47-1.13.68-1.65.63-.52-.05-.98-.33-1.39-.82-.42-.51-.74-1.17-.96-1.98l-.44.12c.24.94.6,1.69,1.07,2.27.5.61,1.07.94,1.7,1,.63.05,1.28-.19,1.94-.73.81-.66,1.26-1.4,1.34-2.2.09-.81-.18-1.59-.8-2.35l-.07-.08c.45.16.97.02,1.56-.39,0,0,0,.01.01.01.06.02.12.02.18,0l.18-.09c.87-.45,1.6-1,2.2-1.65.79-.07,1.67-.35,2.64-.85l.32-.17-.08-.15c.51-.17.89-.41,1.11-.74.5.22,1.11.24,1.82.05.39-.1.76-.28,1.09-.54s.52-.54.57-.85c.36.5.89.65,1.59.47ZM34.03,19.23c-1.1.12-1.84-.18-2.21-.9-.2-.39-.24-.78-.12-1.17s.38-.68.77-.88c.43-.22.84-.27,1.24-.14.4.13.71.41.94.84.33.64.13,1.39-.61,2.25Z"/>
  <path class="st0" d="M44.62,10.21c.74-.34,1.46-.59,2.15-.76l-.1-.35c-.49.13-.76.19-.81.19-.25.02-.46-.04-.62-.16-.16-.12-.24-.28-.25-.46-.01-.17.04-.31.14-.41.11-.1.25-.16.42-.17.19-.01.41.02.65.09l.12-.35c-.28-.11-.55-.16-.8-.15-.28.02-.5.11-.67.28s-.25.41-.23.72c.02.39.23.67.61.83-.16.06-.41.18-.76.34l.14.34Z"/>
  <path class="st0" d="M49.74,15.38c.07-.3.12-.53.15-.7.03-.17.05-.44.06-.8.01-.36,0-.8-.03-1.31-.06-.88-.16-2.28-.32-4.21l-.5.09c.21,2.66.33,4.17.35,4.52.05.86.01,1.55-.12,2.09-.6.47-1.26.74-1.99.82,0-.25,0-.51-.02-.79-.11-1.69-.53-3.26-1.27-4.73l-.45.2c.74,1.4,1.16,2.92,1.26,4.56.02.29.02.55,0,.79-.54.01-1.05-.03-1.53-.12l.03.5c.49.12,1.06.16,1.7.12.43-.03.83-.1,1.2-.23.37-.13.65-.25.81-.35.17-.11.38-.26.65-.46Z"/>
  <polygon class="st0" points="52.81 8.51 52.31 8.53 51.83 16.35 52.33 16.38 52.81 8.51"/>
  <path class="st0" d="M63.07,18.69s-.02.07-.01.1c.02.06.05.11.11.14l.08.04c.35.17.71.3,1.1.41s.71.15.96.14c.26-.3.48-.61.66-.94.19-.33.5-.95.93-1.84.38-.79.99-2.08,1.83-3.88l-.47-.17c-.92,1.98-1.56,3.35-1.93,4.12-.43.9-.84,1.63-1.22,2.2-.44-.05-.95-.21-1.51-.47l.06-.22-.1-.03c-1.13-.33-2.21-.85-3.25-1.55l-.26.43c.71.48,1.42.87,2.11,1.17-.26.63-.71,1.04-1.36,1.25-.65.21-1.38.19-2.18-.04-.84-.25-1.41-.61-1.7-1.1s-.34-1.06-.15-1.73c.2-.68.57-1.34,1.1-1.98l-.34-.3c-.61.68-1.03,1.43-1.27,2.26-.23.79-.16,1.47.2,2.05.36.58,1,1.01,1.92,1.28.98.29,1.85.29,2.62.02.76-.28,1.3-.78,1.62-1.51.14.06.29.11.46.17Z"/>
  <polygon class="st0" points="67.29 21.07 71.29 14.28 70.83 14.07 66.86 20.82 67.29 21.07"/>
  <path class="st0" d="M66.24,21.87c.14-.02.29,0,.44.1.16.1.33.24.49.44l.29-.22c-.17-.25-.36-.44-.58-.57-.24-.14-.47-.19-.71-.14-.24.04-.44.2-.59.47-.2.34-.19.68.04,1.03-.16-.04-.44-.08-.82-.14l-.07.36c.8.14,1.54.33,2.2.58l.12-.35c-.47-.17-.73-.27-.78-.29-.22-.13-.36-.29-.42-.48-.06-.19-.04-.36.05-.53.09-.15.21-.24.35-.26Z"/>
  <path class="st0" d="M73.07,25.59c.77.78,1.43,1.36,2,1.74.57.39,1.09.59,1.56.6,0,.63.29,1.25.8,1.86-.02.06-.02.12.01.17l.06.11c1.03,1.88,2.26,3.55,3.7,5.03-.1.49-.13.9-.08,1.22.05.32.19.7.43,1.14l.12.22h0c.16.48.39.85.71,1.07-.23.5-.25,1.1-.08,1.82.1.39.27.76.52,1.1s.53.53.84.58c-.5.35-.67.88-.49,1.58.09.35.19.62.33.83.13.21.31.43.53.67.32.02.71-.02,1.16-.13.56-.14,1.16-.38,1.8-.71l-.25-.44c-.66.35-1.28.6-1.85.74-.19.05-.37.08-.55.1-.31-.31-.52-.69-.63-1.12-.2-.79.12-1.29.94-1.49l1.31-.33-.17-.44-1.34.33c-.4.1-.73,0-1.02-.27-.28-.28-.48-.65-.59-1.1-.14-.57-.13-1.07.04-1.5.28.05.59.04.92-.01l1.06-.2-.17-.44-.91.16c-.52.09-.9.06-1.13-.11-.23-.17-.4-.46-.5-.89l-.08-.32c-.02-.06-.05-.11-.12-.14,0,0-.02,0-.02,0-.16-.33-.28-.64-.32-.89-.05-.31,0-.79.14-1.44l.03-.17c.01-.06.03-.12.05-.2l.31-1.43c.07-.33.13-.72.19-1.14.06-.43.07-.79.04-1.07-.03-.29-.1-.53-.21-.73-.15-.28-.35-.48-.58-.59-.23-.11-.54-.15-.93-.11l.04.43c.29,0,.5.03.65.1.15.08.27.21.38.39.16.29.2.76.11,1.43-.08.67-.26,1.65-.55,2.96-1.22-1.35-2.3-2.88-3.25-4.6l.14-.13-.05-.05c-.37-.38-.63-.71-.76-1.01-.13-.3-.22-.6-.25-.92.31-.1.61-.28.9-.56l1.01-1-.38-.32-.98.97c-.2.2-.41.33-.62.4-.21.07-.48.06-.8-.01-.32-.08-.71-.28-1.16-.62-.45-.33-.98-.8-1.57-1.4-.45-.45-.8-.87-1.04-1.23s-.38-.68-.41-.95c-.03-.27,0-.5.07-.69s.21-.38.4-.56c.3-.3.78-.63,1.42-.98l-.23-.4c-.69.33-1.24.71-1.66,1.12-.23.23-.4.46-.5.7-.1.24-.13.51-.11.82s.17.68.43,1.09c.26.41.63.87,1.12,1.36Z"/>
  <polygon class="st0" points="71.87 27.45 72.52 27.42 72.49 26.73 71.82 26.78 71.87 27.45"/>
  <polygon class="st0" points="83.61 47.6 91.48 47 91.38 46.5 83.57 47.1 83.61 47.6"/>
</svg>